<svg xmlns="http://www.w3.org/2000/svg" width="16.73" height="19.117" viewBox="0 0 16.73 19.117">
  <path id="calendar-alt-solid" d="M8.67,23.664a1.793,1.793,0,0,0,1.793,1.793H23.607A1.793,1.793,0,0,0,25.4,23.664V13.506H8.67Zm11.951-7.32a.446.446,0,0,1,.446-.446h1.5a.446.446,0,0,1,.446.446v1.5a.446.446,0,0,1-.446.446h-1.5a.446.446,0,0,1-.446-.446Zm0,4.784a.446.446,0,0,1,.446-.451h1.5a.446.446,0,0,1,.446.451v1.491a.456.456,0,0,1-.446.451h-1.5a.456.456,0,0,1-.446-.451Zm-4.779-4.784a.446.446,0,0,1,.446-.446h1.5a.446.446,0,0,1,.446.446v1.5a.446.446,0,0,1-.446.446h-1.5a.446.446,0,0,1-.446-.446Zm0,4.784a.446.446,0,0,1,.446-.451h1.5a.446.446,0,0,1,.446.451v1.491a.456.456,0,0,1-.446.451h-1.5a.456.456,0,0,1-.446-.451Zm-4.784-4.784a.456.456,0,0,1,.451-.446H13a.446.446,0,0,1,.446.446v1.5a.446.446,0,0,1-.446.446h-1.5a.446.446,0,0,1-.446-.446Zm0,4.784a.456.456,0,0,1,.451-.451H13a.446.446,0,0,1,.446.451v1.491A.456.456,0,0,1,13,23.07h-1.5a.456.456,0,0,1-.446-.451Zm12.55-12.4H21.814V6.934a.594.594,0,0,0-.6-.594H20.021a.594.594,0,0,0-.594.594V8.727H14.643V6.934a.594.594,0,0,0-.594-.594H12.855a.594.594,0,0,0-.6.594V8.727H10.463A1.793,1.793,0,0,0,8.67,10.52v1.793H25.4V10.52a1.793,1.793,0,0,0-1.793-1.793Z" transform="translate(-8.67 -6.34)" fill="#1198ed"/>
</svg>
